<svg width="24" height="24" fill="none" xmlns="http://www.w3.org/2000/svg"><g clip-path="url(#a)"><path d="m23.809 21.646-6.205-6.205a9.68 9.68 0 0 0 1.857-5.711C19.461 4.365 15.096 0 9.73 0 4.365 0 0 4.365 0 9.73c0 5.366 4.365 9.73 9.73 9.73a9.678 9.678 0 0 0 5.487-1.698L21.455 24l2.354-2.354ZM2.854 9.73a6.885 6.885 0 0 1 6.877-6.877 6.885 6.885 0 0 1 6.877 6.877 6.885 6.885 0 0 1-6.877 6.877A6.884 6.884 0 0 1 2.854 9.73Z" fill="#383838"/></g><defs><clipPath id="a"><path fill="#fff" d="M0 0h24v24H0z"/></clipPath></defs></svg>